<?xml version="1.0" encoding="utf-8"?>
<!-- Generator: Adobe Illustrator 26.0.3, SVG Export Plug-In . SVG Version: 6.00 Build 0)  -->
<svg version="1.1" id="Layer_1" xmlns="http://www.w3.org/2000/svg" xmlns:xlink="http://www.w3.org/1999/xlink" x="0px" y="0px"
	 viewBox="0 0 375 150" style="enable-background:new 0 0 375 150;" xml:space="preserve">
<g>
	<polygon points="155.3845215,50 148.9569702,50 148.9569702,100 178.1049805,100 178.1049805,94.7683105 155.3845215,94.7683105 	
		"/>
	<path d="M206.7476807,69.2077637h-0.074707c-1.6442871-4.0358887-5.7548828-7.548584-11.1360474-7.548584
		c-8.8938599,0-15.9940186,7.9970093-15.9940186,19.730957c0,10.687561,5.8295898,19.5814209,15.5455933,19.5814209
		c5.3811646,0,9.1928101-2.989502,11.8086548-7.3991089h0.0747681V100h5.5306396V62.6307983h-5.7548828V69.2077637z
		 M196.0601196,96.0388184c-7.1749268,0-10.6876221-6.053772-10.6876221-14.6486816
		c0-8.4454346,3.5126953-14.6487427,10.6876221-14.6487427c7.2495728,0,10.7623291,7.1748657,10.7623291,14.6487427
		C206.8224487,88.8639526,203.8328857,96.0388184,196.0601196,96.0388184z"/>
	<path d="M229.3474121,50h-5.7548828v12.6307983h-6.9506226v4.4842529h6.9506226v23.5426025
		c0,5.9043579,2.9147949,9.3423462,9.2675781,9.3423462h7.1748657v-4.8580322h-6.2032471
		c-3.3632202,0-4.484314-1.494751-4.484314-4.9327393V67.1150513h10.687561v-4.4842529h-10.687561V50z"/>
	<rect x="245.710144" y="62.6307983" width="5.7548218" height="37.3692017"/>
	<rect x="245.710144" y="50" width="5.7548218" height="6.8759155"/>
	<polygon points="283.0045776,62.6307983 272.8401489,93.6472168 272.6906738,93.6472168 262.37677,62.6307983 
		255.9492798,62.6307983 269.850647,100 275.5307617,100 289.4320679,62.6307983 	"/>
	<path d="M321.9432983,81.3153687c0-10.7623291-6.3527832-19.656189-16.2929688-19.656189
		c-9.1928101,0-16.2182617,8.8938599-16.2182617,19.656189c0,11.4349976,5.7548828,19.656189,16.666687,19.656189
		c7.8475342,0,13.2286987-4.8579712,15.6950684-11.6591797l-5.4559326-1.2705688
		c-1.9431763,5.1569824-4.7084961,7.9970093-10.2391357,7.9970093c-6.2033081,0-10.687561-5.3811646-11.0612793-13.677124
		h26.9058228V81.3153687z M295.2617188,78.1016235c0.8220825-6.5022583,4.4095459-11.5097046,10.3886108-11.5097046
		s9.118103,3.8116455,10.3886108,11.5097046H295.2617188z"/>
	<rect x="50" y="50" width="21.0769653" height="35.0588989"/>
	<polygon points="71.0770264,85.0588989 71.0769653,100 85.9933472,100 99.4785156,86.5147705 99.4785156,71.5984497 
		84.5374756,71.5984497 	"/>
</g>
</svg>
